#!OML:ASF F:\VICON\USERDATA\INSTALL\rory3\rory3.ASF
:FULLY-SPECIFIED
:DEGREES
2022
root 1.39562 15.0515 -0.216537 5.34291 -15.3836 20.3502
lowerback 23.8903 -1.44851 13.3376
upperback 3.90349 2.77746 14.0113
thorax -9.1637 1.08296 7.55981
lowerneck -11.7589 -3.19246 -3.70441
upperneck 16.6813 -6.16813 13.221
head 7.61716 -2.00171 4.35116
rclavicle -6.67916e-014 -6.67916e-014
rhumerus 18.1954 -41.7679 -21.0901
rradius 64.9162
rwrist 26.4225
rhand 18.6496 3.57392
rfingers 7.12502
rthumb 43.2751 -20.5741
lclavicle -6.67916e-014 -6.67916e-014
lhumerus -81.7166 -49.5464 118.308
lradius 99.0889
lwrist 33.077
lhand 22.173 23.1464
lfingers 7.12502
lthumb 46.5538 46.0068
rfemur -39.3811 15.605 -14.7725
rtibia 55.5986
rfoot -22.0666 -12.1748
rtoes -28.1155
lfemur -23.7292 9.46623 -43.9932
ltibia 35.6903
lfoot -16.5537 -0.192255
ltoes -1.61715
2023
root 1.39272 15.0251 -0.229782 5.40198 -15.3047 20.4226
lowerback 24.0093 -1.50763 13.5509
upperback 3.99842 2.76648 14.0604
thorax -9.10803 1.07294 7.50398
lowerneck -11.9215 -3.04225 -3.56138
upperneck 16.6987 -5.99715 13.2491
head 7.63387 -1.90372 4.35387
rclavicle -8.90555e-014 -1.36764e-013
rhumerus 17.9983 -41.9098 -20.8837
rradius 65.0447
rwrist 26.4055
rhand 18.7871 3.51976
rfingers 7.12502
rthumb 43.4036 -20.582
lclavicle -8.90555e-014 -1.36764e-013
lhumerus -81.51 -49.7169 118.171
lradius 99.1223
lwrist 33.3046
lhand 22.1548 23.5216
lfingers 7.12502
lthumb 46.5369 46.3892
rfemur -39.7381 15.3507 -14.841
rtibia 56.1443
rfoot -22.224 -12.1073
rtoes -28.3949
lfemur -24.2017 9.4693 -44.0786
ltibia 36.3247
lfoot -16.7183 -0.256331
ltoes -1.76808
2024
root 1.38959 14.994 -0.246583 5.44534 -15.1921 20.5877
lowerback 24.2171 -1.55567 13.6817
upperback 4.02326 2.78688 14.1018
thorax -9.1871 1.07744 7.48408
lowerneck -11.9976 -2.89884 -3.37512
upperneck 16.6744 -5.82922 13.226
head 7.61883 -1.81347 4.33117
rclavicle 3.18055e-014 -4.77083e-014
rhumerus 17.6141 -41.9878 -20.5133
rradius 65.1904
rwrist 26.1926
rhand 18.7805 3.4729
rfingers 7.12502
rthumb 43.3974 -20.6311
lclavicle 3.18055e-014 -4.77083e-014
lhumerus -81.3706 -49.884 118.106
lradius 99.1439
lwrist 33.4247
lhand 22.3259 23.7801
lfingers 7.12502
lthumb 46.6953 46.5793
rfemur -40.1176 15.0189 -15.0057
rtibia 56.716
rfoot -22.4277 -11.9464
rtoes -28.3498
lfemur -24.6736 9.44477 -44.2587
ltibia 36.9729
lfoot -16.896 -0.351324
ltoes -1.75775
2025
root 1.38706 14.964 -0.264802 5.50242 -15.0506 20.7855
lowerback 24.4624 -1.61625 13.8103
upperback 3.81504 2.82817 14.4446
thorax -9.14847 1.02278 7.19948
lowerneck -11.9974 -2.75503 -3.19845
upperneck 16.6802 -5.6486 13.13
head 7.59647 -1.72575 4.28778
rclavicle 2.22639e-014 3.18055e-015
rhumerus 17.2979 -41.9489 -20.1061
rradius 65.3121
rwrist 26.0247
rhand 18.8659 3.4998
rfingers 7.12502
rthumb 43.4772 -20.5753
lclavicle 2.22639e-014 3.18055e-015
lhumerus -81.3251 -49.9423 118.144
lradius 99.1661
lwrist 33.4373
lhand 22.6186 23.9542
lfingers 7.12502
lthumb 46.9663 46.6352
rfemur -40.5012 14.6748 -15.2126
rtibia 57.299
rfoot -22.5995 -11.8479
rtoes -28.4952
lfemur -25.1669 9.36342 -44.4739
ltibia 37.6369
lfoot -17.0999 -0.401119
ltoes -1.84027
2026
root 1.38437 14.9374 -0.279458 5.54514 -14.9995 21.086
lowerback 24.5914 -1.63719 13.8042
upperback 3.87091 2.82209 14.4744
thorax -9.15082 1.02097 7.23807
lowerneck -11.9889 -2.61633 -3.16106
upperneck 16.6232 -5.4714 13.1954
head 7.56134 -1.63732 4.32111
rclavicle 6.36111e-014 2.8625e-014
rhumerus 17.2245 -41.8413 -19.9753
rradius 65.3496
rwrist 25.9305
rhand 18.7871 3.5168
rfingers 7.12502
rthumb 43.4036 -20.585
lclavicle 6.36111e-014 2.8625e-014
lhumerus -81.2245 -49.8987 118.092
lradius 99.2043
lwrist 33.4111
lhand 22.6378 24.1757
lfingers 7.12502
lthumb 46.984 46.8489
rfemur -40.9473 14.4054 -15.5579
rtibia 57.8897
rfoot -22.805 -11.7721
rtoes -28.6659
lfemur -25.6699 9.31922 -44.805
ltibia 38.2906
lfoot -17.3457 -0.415602
ltoes -2.23672
